<?xml version="1.0" standalone="no"?><!DOCTYPE svg PUBLIC "-//W3C//DTD SVG 1.1//EN" "http://www.w3.org/Graphics/SVG/1.1/DTD/svg11.dtd"><svg t="1564136948337" class="icon" viewBox="0 0 1024 1024" version="1.1" xmlns="http://www.w3.org/2000/svg" p-id="29784" xmlns:xlink="http://www.w3.org/1999/xlink" width="32" height="32"><defs><style type="text/css"></style></defs><path d="M514.56 509.44m-506.88 0a506.88 506.88 0 1 0 1013.76 0 506.88 506.88 0 1 0-1013.76 0Z" fill="#BDDBF4" p-id="29785"></path><path d="M830.0032 812.8c-15.9232-82.2784-66.56-153.9584-140.6464-204.3904a26.88 26.88 0 0 0-29.2352 45.1072c61.0816 42.496 103.5264 100.864 116.7872 169.8816a25.856 25.856 0 0 0 26.5728 21.248h5.12a27.5456 27.5456 0 0 0 21.248-31.8464z m-76.8-445.9008a238.8992 238.8992 0 1 0-477.7472 0 231.6288 231.6288 0 0 0 121.856 207.0016 321.1776 321.1776 0 0 0-199.0656 238.848 26.88 26.88 0 0 0 21.248 32.0512h5.12a25.856 25.856 0 0 0 26.5216-21.248 269.5168 269.5168 0 0 1 260.096-217.6512h5.12a237.3632 237.3632 0 0 0 236.2368-238.8992z m-236.2368 185.8048h-8.1408a185.8048 185.8048 0 1 1 191.0784-185.8048c0 100.864-82.2784 183.1424-183.1424 185.8048z m0 0" fill="#FFFFFF" p-id="29786"></path></svg>