<?xml version="1.0" standalone="no"?><!DOCTYPE svg PUBLIC "-//W3C//DTD SVG 1.1//EN" "http://www.w3.org/Graphics/SVG/1.1/DTD/svg11.dtd"><svg t="1564133364498" class="icon" viewBox="0 0 1024 1024" version="1.1" xmlns="http://www.w3.org/2000/svg" p-id="29656" xmlns:xlink="http://www.w3.org/1999/xlink" width="32" height="32"><defs><style type="text/css"></style></defs><path d="M512 512m-413.312 0a413.312 413.312 0 1 0 826.624 0 413.312 413.312 0 1 0-826.624 0Z" fill="#D4F3FF" p-id="29657"></path><path d="M512 0a512.064 512.064 0 1 0 512 512c0-282.688-229.248-512-512-512z m-3.264 179.392a154.24 154.24 0 1 1 0.128 308.48 154.24 154.24 0 0 1-0.128-308.48z m-269.824 612.16C237.312 633.408 314.688 535.36 411.52 496.832l99.456 165.888L615.68 500.544c93.44 40.896 167.744 137.856 169.344 291.008-171.776 68.288-352.96 73.28-546.112 0z" fill="#0086EE" p-id="29658"></path></svg>