<?xml version="1.0" standalone="no"?><!DOCTYPE svg PUBLIC "-//W3C//DTD SVG 1.1//EN" "http://www.w3.org/Graphics/SVG/1.1/DTD/svg11.dtd"><svg t="1577515467575" class="icon" viewBox="0 0 1024 1024" version="1.1" xmlns="http://www.w3.org/2000/svg" p-id="1510" width="120" height="120" xmlns:xlink="http://www.w3.org/1999/xlink"><defs><style type="text/css"></style></defs><path d="M400.26683597 400.26683597m-214.15523128 0a214.15523129 214.15523129 0 1 0 428.3104626 0 214.15523129 214.15523129 0 1 0-428.3104626 0Z" fill="#8CF6FB" p-id="1511"></path><path d="M404.92238467 484.06670916h-139.66645548C221.49377305 484.06670916 186.11160469 448.68454016 186.11160469 404.92238467v-139.66645548C186.11160469 221.49377305 221.49377305 186.11160469 265.25592919 186.11160469h139.66645548C448.68454016 186.11160469 484.06670916 221.49377305 484.06670916 265.25592919v139.66645548c0 43.76215612-35.38216837 79.14432448-79.14432449 79.14432449zM265.25592919 232.66708964C247.56484468 232.66708964 232.66708964 247.56484468 232.66708964 265.25592919v139.66645548C232.66708964 422.61346853 247.56484468 437.51122421 265.25592919 437.51122421h139.66645548c17.6910845 0 32.58883953-14.89775503 32.58883953-32.58883954v-139.66645549C437.51122421 247.56484468 422.61346853 232.66708964 404.92238467 232.66708964h-139.66645548z m493.48814163 251.39961952h-139.66645548c-43.76215612 0-79.14432448-35.38216837-79.1443245-79.14432449v-139.66645549C539.93329084 221.49377305 575.31545984 186.11160469 619.07761533 186.11160469h139.66645548C802.50622695 186.11160469 837.88839531 221.49377305 837.88839531 265.25592919v139.66645548c0 43.76215612-35.38216837 79.14432448-79.14432449 79.14432449z m-139.66645548-251.39961952C601.38653147 232.66708964 586.48877579 247.56484468 586.48877579 265.25592919v139.66645548c0 17.6910845 14.89775503 32.58883953 32.58883954 32.58883953h139.66645549c17.6910845 0 32.58883953-14.89775503 32.58883954-32.58883954v-139.66645548C791.33291036 247.56484468 776.43515532 232.66708964 758.74407081 232.66708964h-139.66645548z m-214.15523067 605.22130567h-139.66645548C221.49377305 837.88839531 186.11160469 802.50622695 186.11160469 758.74407081v-139.66645548C186.11160469 575.31545984 221.49377305 539.93329084 265.25592919 539.93329084h139.66645548c43.76215612 0 79.14432448 35.38216837 79.14432449 79.14432449v139.66645549c0 43.76215612-35.38216837 79.14432448-79.14432449 79.14432449z m-139.66645548-251.39961952C247.56484468 586.48877579 232.66708964 601.38653147 232.66708964 619.07761533v139.66645548C232.66708964 776.43515532 247.56484468 791.33291036 265.25592919 791.33291036h139.66645548c17.6910845 0 32.58883953-14.89775503 32.58883953-32.58883954v-139.66645549c0-17.6910845-14.89775503-32.58883953-32.58883954-32.58883954h-139.66645548z" fill="#3C2DCB" p-id="1512"></path><path d="M688.91084308 837.88839531c-81.93765396 0-148.97755223-67.03989828-148.97755224-148.97755223s67.03989828-148.97755223 148.97755224-148.97755223 148.97755223 67.03989828 148.97755223 148.97755223-67.03989828 148.97755223-148.97755223 148.97755223z m0-251.39961952c-56.79769194 0-102.42206727 45.62437535-102.42206728 102.42206729s45.62437535 102.42206727 102.42206728 102.42206728 102.42206727-45.62437535 102.42206728-102.42206728-45.62437535-102.42206727-102.42206728-102.42206729z" fill="#D098FF" p-id="1513"></path></svg>